<svg class="diagram-root" style="background: #f5f6f6" xmlns="http://www.w3.org/2000/svg" xmlns:xlink="http://www.w3.org/1999/xlink"><style>.diagram-root { font-family: "Helvetica Neue", sans-serif; font-size: 12px; } .t { overflow: visible; } .t-bg { y: 40; fill: #fff;   } .th { fill: #005aa0;   } .tht { fill: #fff; font-size: 14px;  } .tf { fill: #323c46; overflow: visible; } .tf.pk { fill: #005aa0; font-weight: bold; } .tf.fk { font-weight: bold; } .ty { fill: #adb1b5; font-weight: normal; text-anchor: end; } .r { fill: transparent; stroke: #c3c3c3; stroke-width: 1; } .l { stroke: 1; } .i { fill: #c2c7ce; stroke: #c2c7ce; } .i.ix { fill: #afb3b6; stroke: #000; } .fa { fill: transparent; overflow: visible; } .fa .bg.hover { fill: #f7f7f7; } .c { cy: 12; r: 4; stroke: #d2d2dc; fill: #d2d2dc; } .hr { fill: transparent; stroke: #323c46; stroke-opacity: 0.035; stroke-width: 13; } .dc { stroke: #fa5a3c; fill: #fa5a3c; } .x { stroke: white; stroke-width: 1; } .hl .th { fill: #1b9bff; } .hl .tht {  } .fhl .bg { fill: #e7f4ff; } .fhls .bg {  } .r.hl { stroke: #1b9bff; } .dim { opacity: 0.25; }</style><g class="drawing-wrapper" transform="translate(-88, 5) scale(1,1)"><g class="rs"><path d="M 330.52 161 m -1, 0 a 1,1 0 1,0 2,0 a 1,1 0 1,0 -2,0 M 330.52 161 m -0.5, 0 a 0.5,0.5 0 1,0 1,0 a 0.5,0.5 0 1,0 -1,0  M330.52 161 L330.52 161 342.52 161 M336.52 167 L336.52 167 336.52 155 M342.52 161 Q 360.89 161, 379.26 121.5 T 416 82 M 428 82 m -1, 0 a 1,1 0 1,0 2,0 a 1,1 0 1,0 -2,0 M 428 82 m -0.5, 0 a 0.5,0.5 0 1,0 1,0 a 0.5,0.5 0 1,0 -1,0  M428 82 L428 82 416 82 M422 88 L422 88 422 76" id="h2875018287" class="r"></path><path d="M 330.52 436 m -1, 0 a 1,1 0 1,0 2,0 a 1,1 0 1,0 -2,0 M 330.52 436 m -0.5, 0 a 0.5,0.5 0 1,0 1,0 a 0.5,0.5 0 1,0 -1,0  M330.52 436 L330.52 436 342.52 436 M336.52 442 L336.52 442 336.52 430 M342.52 436 Q 358.89 436, 375.26 499.5 T 408 563 M 420 563 m -1, 0 a 1,1 0 1,0 2,0 a 1,1 0 1,0 -2,0 M 420 563 m -0.5, 0 a 0.5,0.5 0 1,0 1,0 a 0.5,0.5 0 1,0 -1,0  M420 563 L420 563 408 563 M414 569 L414 569 414 557" id="h2530819277" class="r"></path><path d="M 330.52 461 m -1, 0 a 1,1 0 1,0 2,0 a 1,1 0 1,0 -2,0 M 330.52 461 m -0.5, 0 a 0.5,0.5 0 1,0 1,0 a 0.5,0.5 0 1,0 -1,0  M330.52 461 L330.52 461 342.52 461 M 330.52 467 m -1, 0 a 1,1 0 1,0 2,0 a 1,1 0 1,0 -2,0 M 330.52 467 m -0.5, 0 a 0.5,0.5 0 1,0 1,0 a 0.5,0.5 0 1,0 -1,0  M330.52 467 L330.52 467 337.52 461 330.52 455 M 330.52 455 m -1, 0 a 1,1 0 1,0 2,0 a 1,1 0 1,0 -2,0 M 330.52 455 m -0.5, 0 a 0.5,0.5 0 1,0 1,0 a 0.5,0.5 0 1,0 -1,0  M342.52 461 C 843.0320000000002 461, 674.09 293, 624.09 293 M 612.09 293 m -1, 0 a 1,1 0 1,0 2,0 a 1,1 0 1,0 -2,0 M 612.09 293 m -0.5, 0 a 0.5,0.5 0 1,0 1,0 a 0.5,0.5 0 1,0 -1,0  M612.09 293 L612.09 293 624.09 293 M618.09 299 L618.09 299 618.09 287" id="h3546111979" class="r"></path></g><g class="hrs"></g><g class="ts"><svg width="220.52" height="400" x="110" y="79" id="h3412607794" class="t"><rect height="40" width="220.52" class="th"></rect><text x="13" y="25" class="tht">compaign</text><rect height="360" width="220.52" class="t-bg"></rect><text x="13" y="61" class="tf pk">cf_id<tspan x="207.52" class="ty">int</tspan></text><path d="M7,14A2,2 0 0,1 5,12A2,2 0 0,1 7,10A2,2 0 0,1 9,12A2,2 0 0,1 7,14M12.65,10C11.83,7.67 9.61,6 7, 6A6, 6 0 0, 0 1, 12A6, 6 0 0, 0 7, 18C9.61, 18 11.83, 16.33 12.65, 14H17V18H21V14H23V10H12.65Z" class="i pk" transform="translate(174.846171875, 48) scale(0.65)"></path><text x="13" y="86" class="tf fk">contact_id<tspan x="207.52" class="ty">int</tspan></text><text x="13" y="111" class="tf">company_name<tspan x="207.52" class="ty">VARCHAR(255),</tspan></text><text x="13" y="136" class="tf">description<tspan x="207.52" class="ty">TEXT,</tspan></text><text x="13" y="161" class="tf">goal<tspan x="207.52" class="ty">NUMERIC,</tspan></text><text x="13" y="186" class="tf">pledged<tspan x="207.52" class="ty">NUMERIC,</tspan></text><text x="13" y="211" class="tf">outcome<tspan x="207.52" class="ty">VARCHAR(50),</tspan></text><text x="13" y="236" class="tf">backers_count<tspan x="207.52" class="ty">INT,</tspan></text><text x="13" y="261" class="tf">country<tspan x="207.52" class="ty">VARCHAR(50),</tspan></text><text x="13" y="286" class="tf">currency<tspan x="207.52" class="ty">VARCHAR(50),</tspan></text><text x="13" y="311" class="tf">launched_date<tspan x="207.52" class="ty">DATE,</tspan></text><text x="13" y="336" class="tf">end_date<tspan x="207.52" class="ty">DATE,</tspan></text><text x="13" y="361" class="tf fk">category_id<tspan x="207.52" class="ty">varchar(4)</tspan></text><text x="13" y="386" class="tf fk">subcategory_id<tspan x="207.52" class="ty">varchar(8),</tspan></text></svg><svg width="170.05" height="150" x="428" y="25" id="h4144639668" class="t"><rect height="40" width="170.05" class="th"></rect><text x="13" y="25" class="tht">contacts</text><rect height="110" width="170.05" class="t-bg"></rect><text x="13" y="61" class="tf pk">contact_id<tspan x="157.05" class="ty">int</tspan></text><path d="M7,14A2,2 0 0,1 5,12A2,2 0 0,1 7,10A2,2 0 0,1 9,12A2,2 0 0,1 7,14M12.65,10C11.83,7.67 9.61,6 7, 6A6, 6 0 0, 0 1, 12A6, 6 0 0, 0 7, 18C9.61, 18 11.83, 16.33 12.65, 14H17V18H21V14H23V10H12.65Z" class="i pk" transform="translate(124.37617187500001, 48) scale(0.65)"></path><text x="13" y="86" class="tf">first_name<tspan x="157.05" class="ty">varchar(100)</tspan></text><text x="13" y="111" class="tf">last_name<tspan x="157.05" class="ty">varchar(100)</tspan></text><text x="13" y="136" class="tf">email<tspan x="157.05" class="ty">varchar(100)</tspan></text><path d="M22,18V22H18V19H15V16H12L9.74,13.74C9.19,13.91 8.61,14 8,14A6,6 0 0,1 2,8A6,6 0 0,1 8,2A6,6 0 0,1 14,8C14,8.61 13.91, 9.19 13.74, 9.74L22, 18M7, 5A2, 2 0 0, 0 5, 7A2, 2 0 0, 0 7, 9A2, 2 0 0, 0 9, 7A2, 2 0 0, 0 7, 5Z" class="i uq" transform="translate(73.02265625000001, 125.5) scale(0.5)"></path></svg><svg width="216.09" height="100" x="396" y="236" id="h1568904301" class="t"><rect height="40" width="216.09" class="th"></rect><text x="13" y="25" class="tht">subcategory</text><rect height="60" width="216.09" class="t-bg"></rect><text x="13" y="61" class="tf pk">subcategory_id<tspan x="203.09" class="ty">varchar(8)</tspan></text><path d="M7,14A2,2 0 0,1 5,12A2,2 0 0,1 7,10A2,2 0 0,1 9,12A2,2 0 0,1 7,14M12.65,10C11.83,7.67 9.61,6 7, 6A6, 6 0 0, 0 1, 12A6, 6 0 0, 0 7, 18C9.61, 18 11.83, 16.33 12.65, 14H17V18H21V14H23V10H12.65Z" class="i pk" transform="translate(128.4103125, 48) scale(0.65)"></path><text x="13" y="86" class="tf">subcategory_name<tspan x="203.09" class="ty">varchar(100)</tspan></text></svg><svg width="196.74" height="100" x="420" y="506" id="h2794354149" class="t"><rect height="40" width="196.74" class="th"></rect><text x="13" y="25" class="tht">category</text><rect height="60" width="196.74" class="t-bg"></rect><text x="13" y="61" class="tf pk">category_id<tspan x="183.74" class="ty">varchar(4)</tspan></text><path d="M7,14A2,2 0 0,1 5,12A2,2 0 0,1 7,10A2,2 0 0,1 9,12A2,2 0 0,1 7,14M12.65,10C11.83,7.67 9.61,6 7, 6A6, 6 0 0, 0 1, 12A6, 6 0 0, 0 7, 18C9.61, 18 11.83, 16.33 12.65, 14H17V18H21V14H23V10H12.65Z" class="i pk" transform="translate(109.06031250000001, 48) scale(0.65)"></path><text x="13" y="86" class="tf">category_name<tspan x="183.74" class="ty">varchar(100)</tspan></text></svg></g></g><text class="qdbd-link" x="10" y="20">www.quickdatabasediagrams.com</text></svg>